<svg width="47" height="65" viewBox="0 0 47 65" fill="none"
    xmlns="http://www.w3.org/2000/svg">
    <g clip-path="url(#clip0_161_2337)">
        <path d="M18.556 32.6062C16.8212 33.234 15.2144 33.1665 13.7355 32.4035C12.256 31.6407 11.0574 30.5145 10.1396 29.025L5.46168 21.4839C5.24784 21.1425 5.19085 20.7708 5.29069 20.3686C5.38973 19.9659 5.60189 19.7057 5.92717 19.588C6.23695 19.4759 6.66223 19.4631 7.20301 19.5496C7.74396 19.637 8.18706 19.9532 8.5323 20.4983L10.7843 24.1118L11.4813 23.8596L8.31157 10.2448C8.21715 9.83925 8.24975 9.45558 8.40937 9.09378C8.56856 8.73297 8.81078 8.49371 9.13606 8.37599C9.46133 8.25827 9.76866 8.29864 10.0581 8.49711C10.3482 8.69612 10.5405 8.9984 10.635 9.40394L12.9954 19.5426L13.9248 19.2063L11.0248 6.75019C10.9304 6.34465 10.963 5.96097 11.1226 5.59917C11.2818 5.23837 11.524 4.99911 11.8493 4.88139C12.1745 4.76367 12.4819 4.80404 12.7713 5.0025C13.0615 5.20151 13.2538 5.50379 13.3482 5.90934L16.2482 18.3654L17.1775 18.0291L14.6822 7.31105C14.5878 6.90551 14.6204 6.52183 14.78 6.16003C14.9392 5.79923 15.1814 5.55996 15.5067 5.44225C15.8319 5.32453 16.1396 5.36478 16.4296 5.56302C16.7192 5.76226 16.9112 6.06465 17.0056 6.4702L19.5009 17.1882L20.4303 16.8519L18.7442 9.60997C18.6498 9.20442 18.6824 8.82075 18.842 8.45894C19.0012 8.09814 19.2434 7.85888 19.5687 7.74116C19.894 7.62344 20.2016 7.6637 20.4916 7.86194C20.7812 8.06117 20.9732 8.36356 21.0676 8.76911L23.8327 20.6458C24.4352 23.2336 24.2253 25.6861 23.2029 28.0035C22.1806 30.3208 20.6316 31.855 18.556 32.6062Z" fill="#F3292A"/>
    </g>
    <g clip-path="url(#clip1_161_2337)">
        <path d="M29.9535 32.1818C28.2187 31.5538 26.8907 30.424 25.9694 28.7922C25.0475 27.1603 24.5189 25.409 24.3835 23.5382L23.6716 14.0463C23.6376 13.6152 23.7492 13.2632 24.0062 12.9902C24.2628 12.7162 24.5538 12.6381 24.879 12.7559C25.1888 12.868 25.5535 13.1411 25.973 13.5753C26.3924 14.0102 26.6308 14.5731 26.6882 15.2639L27.0382 19.8193L27.7352 20.0716L30.9056 6.45701C31 6.05147 31.1924 5.7492 31.4825 5.55021C31.7719 5.35177 32.0793 5.31142 32.4046 5.42917C32.7298 5.54691 32.972 5.78619 33.1312 6.147C33.2908 6.50882 33.3234 6.89249 33.2289 7.29803L30.868 17.4365L31.7973 17.7729L34.6979 5.31707C34.7924 4.91153 34.9847 4.60927 35.2749 4.41028C35.5643 4.21184 35.8716 4.17149 36.1969 4.28923C36.5222 4.40697 36.7644 4.64625 36.9235 5.00707C37.0831 5.36888 37.1157 5.75256 37.0213 6.1581L34.1207 18.614L35.05 18.9504L37.5459 8.23254C37.6403 7.827 37.8326 7.52473 38.1228 7.32574C38.4122 7.1273 38.7196 7.08695 39.0448 7.20469C39.3701 7.32244 39.6126 7.56183 39.7724 7.92287C39.9314 8.28446 39.9637 8.66802 39.8692 9.07356L37.3734 19.7914L38.3027 20.1278L39.9891 12.886C40.0836 12.4805 40.2759 12.1782 40.5661 11.9792C40.8555 11.7808 41.1628 11.7404 41.4881 11.8582C41.8133 11.9759 42.0559 12.2153 42.2156 12.5764C42.3746 12.9379 42.4069 13.3215 42.3125 13.7271L39.5468 25.6036C38.9442 28.1913 37.7135 30.1224 35.8548 31.397C33.9961 32.6715 32.029 32.9331 29.9535 32.1818Z" fill="#F3292A"/>
    </g>
    <mask id="mask0_161_2337" style="mask-type:luminance" maskUnits="userSpaceOnUse" x="5" y="41" width="37" height="21">
        <path d="M7.19604 48.3218H13.712V43.9783H7.19604V48.3218ZM33.2599 48.3218H39.7759V43.9783H33.2599V48.3218ZM20.228 59.1806H26.744V54.8371H20.228V59.1806Z" fill="#555555" stroke="white" stroke-width="4" stroke-linejoin="round"/>
        <path d="M20.228 57.0089H7.19604M39.7759 57.0089H26.744M10.454 48.3218C10.454 52.3694 14.608 55.7709 20.228 56.7352M26.744 56.7352C32.364 55.7709 36.5179 52.37 36.5179 48.3218" stroke="white" stroke-width="4" stroke-linecap="round" stroke-linejoin="round"/>
    </mask>
    <g mask="url(#mask0_161_2337)">
        <path d="M3.93811 64.61H43.0339V38.5488H3.93811L3.93811 64.61Z" fill="#F3292A"/>
    </g>
    <defs>
        <clipPath id="clip0_161_2337">
            <rect width="23.7203" height="28.5526" fill="white" transform="matrix(0.940314 -0.340308 0.226754 0.973952 0 9.16974)"/>
        </clipPath>
        <clipPath id="clip1_161_2337">
            <rect width="23.7205" height="28.5525" fill="white" transform="matrix(0.94029 0.340374 -0.226801 0.973941 24.3478 0)"/>
        </clipPath>
    </defs>
</svg>
