<svg width="18" height="18" viewBox="0 0 18 18" fill="none" xmlns="http://www.w3.org/2000/svg">
<path d="M9 0.666748C11.2642 0.666748 11.5467 0.675081 12.435 0.716748C13.3225 0.758415 13.9267 0.897581 14.4583 1.10425C15.0083 1.31591 15.4717 1.60258 15.935 2.06508C16.3587 2.48166 16.6866 2.98557 16.8958 3.54175C17.1017 4.07258 17.2417 4.67758 17.2833 5.56508C17.3225 6.45341 17.3333 6.73591 17.3333 9.00008C17.3333 11.2642 17.325 11.5467 17.2833 12.4351C17.2417 13.3226 17.1017 13.9267 16.8958 14.4584C16.6872 15.0149 16.3593 15.5189 15.935 15.9351C15.5183 16.3587 15.0144 16.6865 14.4583 16.8959C13.9275 17.1017 13.3225 17.2417 12.435 17.2834C11.5467 17.3226 11.2642 17.3334 9 17.3334C6.73584 17.3334 6.45334 17.3251 5.565 17.2834C4.6775 17.2417 4.07334 17.1017 3.54167 16.8959C2.98528 16.6871 2.48128 16.3592 2.06501 15.9351C1.64118 15.5186 1.31328 15.0146 1.10417 14.4584C0.897505 13.9276 0.758338 13.3226 0.716672 12.4351C0.677505 11.5467 0.666672 11.2642 0.666672 9.00008C0.666672 6.73591 0.675005 6.45341 0.716672 5.56508C0.758338 4.67675 0.897505 4.07341 1.10417 3.54175C1.3127 2.98523 1.64067 2.48118 2.06501 2.06508C2.4814 1.64111 2.98536 1.31319 3.54167 1.10425C4.07334 0.897581 4.67667 0.758415 5.565 0.716748C6.45334 0.677581 6.73584 0.666748 9 0.666748ZM9 4.83341C7.89494 4.83341 6.83513 5.2724 6.05373 6.0538C5.27233 6.8352 4.83334 7.89501 4.83334 9.00008C4.83334 10.1052 5.27233 11.165 6.05373 11.9464C6.83513 12.7278 7.89494 13.1667 9 13.1667C10.1051 13.1667 11.1649 12.7278 11.9463 11.9464C12.7277 11.165 13.1667 10.1052 13.1667 9.00008C13.1667 7.89501 12.7277 6.8352 11.9463 6.0538C11.1649 5.2724 10.1051 4.83341 9 4.83341ZM14.4167 4.62508C14.4167 4.34881 14.3069 4.08386 14.1116 3.88851C13.9162 3.69316 13.6513 3.58341 13.375 3.58341C13.0987 3.58341 12.8338 3.69316 12.6384 3.88851C12.4431 4.08386 12.3333 4.34881 12.3333 4.62508C12.3333 4.90135 12.4431 5.1663 12.6384 5.36165C12.8338 5.557 13.0987 5.66675 13.375 5.66675C13.6513 5.66675 13.9162 5.557 14.1116 5.36165C14.3069 5.1663 14.4167 4.90135 14.4167 4.62508ZM9 6.50008C9.66305 6.50008 10.2989 6.76347 10.7678 7.23231C11.2366 7.70115 11.5 8.33704 11.5 9.00008C11.5 9.66312 11.2366 10.299 10.7678 10.7678C10.2989 11.2367 9.66305 11.5001 9 11.5001C8.33696 11.5001 7.70108 11.2367 7.23224 10.7678C6.7634 10.299 6.5 9.66312 6.5 9.00008C6.5 8.33704 6.7634 7.70115 7.23224 7.23231C7.70108 6.76347 8.33696 6.50008 9 6.50008Z" fill="#EB2024"/>
</svg>
