<svg width="15" height="15" viewBox="0 0 15 15" fill="none" xmlns="http://www.w3.org/2000/svg">
<path d="M12.7806 12.7809H10.5581V9.30027C10.5581 8.47029 10.5433 7.40183 9.40217 7.40183C8.24459 7.40183 8.06746 8.30617 8.06746 9.23986V12.7807H5.845V5.6231H7.97858V6.60127H8.00846C8.22198 6.23617 8.53053 5.93582 8.90124 5.73221C9.27196 5.5286 9.69096 5.42935 10.1136 5.44503C12.3663 5.44503 12.7816 6.92675 12.7816 8.85437L12.7806 12.7809ZM3.33719 4.64476C2.62487 4.64488 2.04731 4.0675 2.04719 3.35517C2.04707 2.64285 2.6244 2.06529 3.33672 2.06517C4.04904 2.065 4.6266 2.64238 4.62672 3.3547C4.62678 3.69678 4.49096 4.02486 4.24913 4.26679C4.00729 4.50873 3.67926 4.64468 3.33719 4.64476ZM4.44848 12.781H2.22362V5.6231H4.44842V12.7809L4.44848 12.781ZM13.8886 0.00109171H1.10682C0.502717 -0.00570516 0.00730652 0.47822 -7.62939e-05 1.08232V13.9175C0.00707214 14.5218 0.502424 15.0062 1.10676 14.9999H13.8886C14.4943 15.0074 14.9915 14.523 14.9999 13.9175V1.08133C14.9913 0.476052 14.494 -0.00781453 13.8886 9.56187e-05" fill="#0A66C2"/>
</svg>
