<svg width="52" height="85" viewBox="0 0 52 85" fill="none" xmlns="http://www.w3.org/2000/svg">
<path d="M8.72792 32.9502C8.44434 42.53 11.7016 53.2181 12.013 54.2214L0.233664 57.7824L1.79364 39.9518C1.97467 37.8826 3.18069 36.014 5.02178 34.9994L8.72792 32.9502ZM34.8606 54.4679C34.8606 54.4679 40.7002 43.2448 41.5284 33.7792C43.6083 10.0052 32.9771 1.7108 30.3746 0.0191316C27.4978 1.20924 15.6078 7.55544 13.5278 31.3295C12.6997 40.7951 16.5018 52.8617 16.5018 52.8617L34.8606 54.4679ZM45.9739 36.2088C44.5897 45.6923 39.526 55.6524 39.045 56.5863L50.0271 62.1387L51.587 44.3082C51.7681 42.239 50.9049 40.1893 49.2679 38.8705L45.9739 36.2088ZM31.6746 61.2207C33.3418 63.2076 34.0344 65.686 33.8264 68.0634C33.3719 73.2585 22.9522 84.8572 22.9522 84.8572C22.9522 84.8572 14.7049 71.6253 15.1594 66.4303C15.3163 64.5812 16.0191 62.8205 17.1787 61.3717C18.3382 59.9229 19.9021 58.8514 21.6718 58.2931C23.4416 57.7349 25.3373 57.7151 27.1182 58.2364C28.8992 58.7576 30.4851 59.7964 31.6746 61.2207ZM23.1717 31.6409C20.9621 29.0076 21.3088 25.0452 23.9421 22.8357C26.5754 20.6261 30.5377 20.9727 32.7473 23.606C34.9569 26.2393 34.6102 30.2016 31.9769 32.4112C29.3436 34.6208 25.3813 34.2741 23.1717 31.6409Z" fill="#F8F8F8"/>
</svg>
