<svg width="18" height="14" viewBox="0 0 18 14" fill="none" xmlns="http://www.w3.org/2000/svg">
<path d="M17.0284 0.359277C16.3492 0.68011 15.1934 1.28178 14.6125 1.39678C14.59 1.40261 14.5717 1.41011 14.55 1.41594C13.8725 0.74761 12.9442 0.333444 11.9167 0.333444C9.84586 0.333444 8.16669 2.01261 8.16669 4.08344C8.16669 4.19261 8.15753 4.39344 8.16669 4.50011C5.48503 4.50011 3.52669 3.10094 2.06086 1.30261C1.86503 1.06094 1.65669 1.18678 1.61336 1.35844C1.51586 1.74678 1.48253 2.39594 1.48253 2.85928C1.48253 4.02678 2.39503 5.17344 3.81586 5.88428C3.55419 5.95178 3.26586 6.00011 2.96586 6.00011C2.61253 6.00011 2.20586 5.90761 1.85003 5.72094C1.71836 5.65178 1.43419 5.67094 1.51836 6.00761C1.85586 7.35678 3.39586 8.30428 4.77169 8.58011C4.45919 8.76428 3.79253 8.72678 3.48586 8.72678C3.37253 8.72678 2.97836 8.70011 2.72336 8.66844C2.49086 8.64011 2.13336 8.70011 2.43253 9.15344C3.07503 10.1259 4.52836 10.7368 5.77919 10.7601C4.62753 11.6634 2.74419 11.9934 0.940028 11.9934C0.575028 11.9851 0.593361 12.4009 0.887528 12.5551C2.21836 13.2534 4.39836 13.6668 5.95586 13.6668C12.1475 13.6668 15.6667 8.94761 15.6667 4.49928C15.6667 4.42761 15.665 4.27761 15.6625 4.12678C15.6625 4.11178 15.6667 4.09761 15.6667 4.08261C15.6667 4.06011 15.66 4.03844 15.66 4.01594C15.6575 3.90261 15.655 3.79678 15.6525 3.74178C16.1434 3.38761 16.895 2.77261 17.275 2.30178C17.4042 2.14178 17.3 1.94761 17.1242 2.00844C16.6717 2.16594 15.8892 2.47094 15.3992 2.52928C16.38 1.88011 16.865 1.31511 17.2817 0.68761C17.4242 0.473444 17.2459 0.255944 17.0284 0.359277Z" fill="#0A79FB"/>
</svg>
